<?xml version="1.0" encoding="utf-8"?>
<!-- Generator: Adobe Illustrator 16.0.0, SVG Export Plug-In . SVG Version: 6.00 Build 0)  -->
<svg version="1.2" baseProfile="tiny" id="message_1_"
	 xmlns="http://www.w3.org/2000/svg" xmlns:xlink="http://www.w3.org/1999/xlink" x="0px" y="0px" width="250px" height="250px"
	 viewBox="0 0 250 250" xml:space="preserve">
<g id="message">
	<path fill="#56495D" d="M189.8,118.955c0-30.958-29.012-56.055-64.801-56.055C89.212,62.9,60.2,87.997,60.2,118.955
		c0,30.958,29.012,56.848,64.799,56.848c6.332,0,12.436-0.82,18.22-2.287l21.224,13.584l-0.012-23.768
		C179.83,153.092,189.8,137.057,189.8,118.955z M158.808,160.322v5.371l-0.092,11.303l-8.879-5.477
		c0.1-0.035,0.207-0.061,0.307-0.096l-5.127-4.25c-6.26,1.922-12.979,3.023-20.018,3.023c-32.675,0-59.164-23.381-59.164-51.243
		c0-27.862,26.489-50.449,59.164-50.449c32.676,0,59.166,22.587,59.166,50.449C184.165,136.09,174.124,151.205,158.808,160.322z"/>
</g>
<circle fill="none" stroke="#56495D" stroke-width="5" stroke-miterlimit="10" cx="125" cy="125" r="112.5"/>
</svg>
