<?xml version="1.0" encoding="utf-8"?>
<!-- Generator: Adobe Illustrator 16.0.0, SVG Export Plug-In . SVG Version: 6.00 Build 0)  -->
<!DOCTYPE svg PUBLIC "-//W3C//DTD SVG 1.1//EN" "http://www.w3.org/Graphics/SVG/1.1/DTD/svg11.dtd">
<svg version="1.1" id="Layer_1" xmlns="http://www.w3.org/2000/svg" xmlns:xlink="http://www.w3.org/1999/xlink" x="0px" y="0px"
	 width="231px" height="146px" viewBox="0 0 231 146" enable-background="new 0 0 231 146" xml:space="preserve">
<g id="color_2_">
	<g id="eraser_2_">
		<path fill="#F3775D" d="M208.899,139.875c-8.81,0.118-37.728-12.172-65.199-18.197c-21.038-4.613-35.399-6.218-48.231-5.987
			l-1.232-14.483c39.412,1.172,81.38,20.584,100.793,26.873c11.822,3.829,13.915,3.03,15.954,2.253
			c5.32-2.031,4.718-5.516,5.185-7.03c0.007,0.058,0,0,0,0l9.061-1.174c-0.102,4.125-0.815,12.774-10.711,16.83
			C213.006,139.58,211.139,139.875,208.899,139.875z"/>
	</g>
	<g id="jott.ly_3_">
		<path fill="#F3775D" d="M45.195,67.561c1.971,0,4.315,2.713,4.315,5.054c0,0.124,0,0.741-0.125,1.232
			c-4.19,14.299-11.337,21.57-17.993,27.363v21.321c0,12.941-6.534,17.502-12.82,17.502c-6.902,0-11.832-6.288-11.832-14.175
			c0-12.448,7.15-18.733,15.284-25.882V48.211c0-2.341-0.493-3.08-0.493-3.944c0-1.232,1.478-2.095,3.204-2.095
			c4.067,0,6.657,2.465,6.657,5.422v43.263c4.437-4.933,8.378-11.095,10.844-19.599C42.978,68.671,43.962,67.561,45.195,67.561z
			 M22.025,122.53v-13.187c-3.946,4.066-6.657,8.75-6.657,16.146c0,3.82,1.233,6.778,3.205,6.778
			C22.52,132.267,22.025,124.873,22.025,122.53z M26.707,14.935c4.067,0,7.519,3.203,7.519,7.52c0,4.064-3.452,7.518-7.519,7.518
			c-4.188,0-7.517-3.454-7.517-7.518C19.19,18.138,22.52,14.935,26.707,14.935z"/>
		<path fill="#F3775D" d="M94.862,72.491c-1.478,6.656-6.533,12.202-14.911,12.202c-2.22,0-4.192-0.246-6.042-0.864
			c-3.079,5.302-7.762,8.875-14.787,8.875c-12.449,0-17.995-10.599-17.995-22.925c0-18.117,9.858-29.086,12.571-29.086
			c3.205,0,5.669,6.533,2.465,8.626c-1.975,2.959-5.668,7.518-5.668,19.721c0,10.352,4.067,15.529,8.872,15.529
			c3.453,0,5.669-1.848,7.271-4.683c-5.792-4.931-8.872-13.065-8.872-21.939c0-7.764,3.327-14.419,9.981-14.419
			c5.792,0,10.477,8.75,10.477,20.705c0,4.561-0.494,9.122-1.726,13.311c0.863,0.248,1.602,0.248,2.465,0.248
			c5.298,0,8.133-4.068,8.873-8.873C88.33,66.082,96.464,65.589,94.862,72.491z M68.982,71.875c0.246-1.972,0.37-3.821,0.37-5.67
			c0-8.38-0.37-14.543-2.958-14.543c-1.357,0-2.096,1.971-2.096,5.792C64.297,63.001,66.147,68.178,68.982,71.875z"/>
		<path fill="#F3775D" d="M120.863,39.584c-9.856,0.246-17.13,0.246-23.663,0.246V78.9c0,3.945,1.605,5.669,4.191,5.669
			c4.93,0,7.15-7.889,8.258-13.312c0.493-2.587,1.726-3.698,2.959-3.698c1.971,0,4.312,2.713,4.312,5.054
			c0,0.124,0,0.371-0.124,0.863c-2.094,8.135-7.022,19.227-17.622,19.227c-6.657,0-11.341-3.943-11.341-13.68V39.83
			c-5.421,0-8.504-0.246-8.504-0.246c-3.943,0-6.163-8.257-2.589-8.257c0,0,4.439,0.245,11.093,0.368V10.866
			c0-3.574-1.232-3.819-1.232-4.682c0-0.864,2.219-1.356,3.946-1.356c4.067,0,6.653,2.464,6.653,5.422v21.569"/>
		<path fill="#F3775D" d="M110.14,31.695V10.866c0-3.574-1.233-3.819-1.233-4.682c0-0.864,2.222-1.356,3.947-1.356
			c4.067,0,6.653,2.464,6.653,5.422v21.569c7.519,0,16.138-0.5,24.526-0.492c4.106,0.003,2.344,8.135-0.86,8.257
			c-9.861,0.246-17.133,0.246-23.666,0.246V78.9c0,3.945,1.605,5.669,4.191,5.669c4.931,0,7.15-7.889,8.258-13.312
			c0.495-2.587,1.727-3.698,2.959-3.698c1.972,0,4.312,2.713,4.312,5.054c0,0.124,0,0.371-0.122,0.863
			c-2.096,8.135-7.026,19.227-17.625,19.227c-6.655,0-11.341-3.943-11.341-13.68V39.83c-5.42,0-8.503-0.246-8.503-0.246
			c-3.943,0-14.375-7.841-10.802-7.841C90.835,31.743,103.487,31.572,110.14,31.695z"/>
		<path fill="#F3775D" d="M156.959,86.171c0,3.082-2.712,5.793-6.042,5.793c-3.204,0-5.914-2.711-5.914-5.793
			c0-3.326,2.71-5.915,5.914-5.915C154.247,80.256,156.959,82.846,156.959,86.171z"/>
		<path fill="#F3775D" d="M199.739,73.601c-2.22,6.655-8.258,19.103-19.475,19.103c-9.488,0-14.542-6.533-14.542-16.268V20.358
			c0-9.244,5.054-15.776,11.213-15.776c10.848,0,10.972,12.94,10.972,19.843c0,18.117-11.217,43.012-12.819,44.494v7.147
			c0,4.93,1.971,8.503,6.531,8.503c5.669,0,9.861-7.765,10.969-13.188C194.069,64.11,200.724,69.658,199.739,73.601z
			 M175.089,52.771c2.589-5.177,5.175-21.444,5.175-28.223c0-8.134-1.354-11.832-3.328-11.832c-1.354,0-1.847,2.959-1.847,4.93
			V52.771z"/>
		<path fill="#F3775D" d="M225.741,101.209l-0.512,20.921c-3.209,9.478-7.389,8.64-9.511,9.01c-2.563,0.446-1.621-0.328-0.349-4.438
			c2.711-6.574,1.005-42.38,1.005-42.38c-2.96,4.93-6.778,8.505-12.079,8.505c-8.258,0-13.067-7.026-13.067-17.749
			c0-13.064,4.437-27.731,4.437-27.731c0.867-2.095,0-4.561,6.535-4.561c6.04,0,2.462,4.93,1.971,6.779
			c-2.219,9.119-3.574,14.543-3.574,24.895c0,6.657,2.094,10.23,5.668,10.23c4.928,0,8.625-8.012,10.108-16.638V48.211
			c0-2.341-0.495-3.08-0.495-3.944c0-1.232,1.48-2.095,3.204-2.095c4.066,0,6.657,2.465,6.657,5.422"/>
	</g>
	<g id="pencil_1_">
		<g>
			<path fill="#F3775D" d="M83.295,117.419c-14.42,3.538-27.141,11.149-30.322,13.151c0,0-9.343-13.043-9.311-13.065
				c3.749-2.446,19.848-12.335,38.308-15.413"/>
			<path fill="#F3775D" d="M84.833,101.674c2.121-0.265,4.267-0.434,6.422-0.485l1.279,14.638c-2.137,0.197-4.277,0.525-6.396,0.954
				"/>
			<path fill="#F3775D" d="M84.833,101.674"/>
			<path fill="#F3775D" d="M83.175,101.903"/>
		</g>
		<g>
			<polygon fill="#F3775D" points="50.181,131.625 41.951,120.141 39.071,126.699 38.845,127.216 43.384,133.394 43.835,133.276 			
				"/>
			<polygon fill="#F3775D" points="37.687,129.856 37.694,129.837 37.63,129.982 35.202,135.519 40.657,134.101 40.75,134.076 
				40.744,134.078 			"/>
		</g>
	</g>
</g>
</svg>
