<?xml version="1.0" encoding="utf-8"?>
<!-- Generator: Adobe Illustrator 16.0.0, SVG Export Plug-In . SVG Version: 6.00 Build 0)  -->
<svg version="1.2" baseProfile="tiny" xmlns="http://www.w3.org/2000/svg" xmlns:xlink="http://www.w3.org/1999/xlink" x="0px"
	 y="0px" width="250px" height="250px" viewBox="0 0 250 250" xml:space="preserve">
<g id="Ellipse_2_xA0_Image_1_">
</g>
<g id="new_1_">
	<g id="new">
		<path fill="#56495D" d="M104.832,125.866l-1.23,1.241c-0.356,0.359-0.418,0.921-0.225,1.469l-0.566-0.522l-9.147,30.51
			l29.793-11.483l-0.079-0.073c0.022-0.019,0.049-0.032,0.07-0.054l1.981-1.999c0.021-0.021,0.033-0.046,0.052-0.068l45.534-45.941
			c0.022-0.02,0.048-0.033,0.069-0.054l1.981-1.999c0.021-0.021,0.035-0.048,0.054-0.071l0.982-0.991l-3.963-3.998l-0.067,0.068
			l-11.949-11.935l0.128-0.128l-3.963-3.998l-49.52,49.961L104.832,125.866z M154.159,83.963l11.948,11.934l-43.674,44.064
			l-11.948-11.934L154.159,83.963z M118.074,143.487l-18.682,9.124l7.867-19.919L118.074,143.487z M186.569,67.256l-3.963-3.998
			c-4.378-4.416-11.474-4.416-15.852,0l-4.543,4.584l0.391,0.394c-0.375-0.026-0.726,0.076-0.977,0.329l-1.981,1.998
			c-0.547,0.553-0.41,1.585,0.305,2.307l17.254,17.232c0.716,0.722,1.739,0.859,2.287,0.308l1.98-2
			c0.21-0.211,0.317-0.494,0.332-0.802l0.224,0.226l4.543-4.584C190.946,78.833,190.946,71.673,186.569,67.256z M182.606,79.251
			l-4.13,4.167l-11.948-11.935l4.189-4.228c2.188-2.208,5.737-2.208,7.926,0l3.963,3.999
			C184.795,73.463,184.795,77.043,182.606,79.251z M177.809,104.575v75.544c0,1.988-1.611,3.6-3.6,3.6H72.171
			c-1.988,0-3.6-1.611-3.6-3.6V77.069c0-1.988,1.612-3.601,3.6-3.601h72.057v-5.625H70.146c-3.977,0-7.2,3.224-7.2,7.2V182.2
			c0,3.977,3.223,7.2,7.2,7.2h106.087c3.977,0,7.2-3.224,7.2-7.2v-76.954l-0.665-0.671H177.809z"/>
	</g>
	<circle fill="none" stroke="#56495D" stroke-width="5" stroke-miterlimit="10" cx="125" cy="125" r="112.5"/>
</g>
</svg>
